<?xml version="1.0" standalone="no"?>
<!DOCTYPE svg PUBLIC "-//W3C//DTD SVG 20010904//EN"
 "http://www.w3.org/TR/2001/REC-SVG-20010904/DTD/svg10.dtd">
<svg version="1.0" xmlns="http://www.w3.org/2000/svg"
 width="512.000000pt" height="512.000000pt" viewBox="0 0 512.000000 512.000000"
 preserveAspectRatio="xMidYMid meet">
<metadata>
Created by potrace 1.14, written by Peter Selinger 2001-2017
</metadata>
<g transform="translate(0.000000,512.000000) scale(0.100000,-0.100000)"
fill="#000000" stroke="none">
<path d="M115 4372 c-79 -8 -122 -58 -109 -128 6 -32 47 -76 75 -80 5 -1 12
-2 17 -3 4 0 8 -463 8 -1028 1 -1053 2 -1077 39 -1233 3 -14 8 -35 11 -47 9
-43 55 -168 91 -243 144 -308 390 -559 700 -714 137 -68 322 -121 503 -142 45
-5 269 -6 295 0 11 2 45 7 75 11 210 27 498 143 645 260 71 57 281 181 512
302 346 181 766 331 1008 359 28 3 70 9 95 13 25 4 88 6 140 4 164 -4 214 -14
305 -64 288 -155 526 -49 580 257 13 74 14 249 1 331 -23 148 -54 266 -116
433 -201 546 -583 1033 -915 1165 -56 23 -86 29 -151 29 -121 0 -208 -44 -269
-137 -61 -93 -80 -172 -80 -332 0 -77 3 -162 7 -188 4 -36 0 -71 -17 -135 -82
-307 -250 -672 -440 -957 l-40 -60 0 175 c0 185 -6 257 -32 355 -8 33 -16 68
-18 77 -2 9 -15 47 -28 85 -200 549 -678 924 -1262 989 -43 5 -266 5 -290 0
-11 -2 -45 -7 -75 -11 -305 -40 -613 -195 -837 -422 -79 -80 -176 -201 -202
-251 -7 -13 -15 -21 -18 -19 -4 4 -7 943 -4 1102 1 26 7 33 35 43 58 21 85 82
61 139 -22 53 -51 64 -167 66 -57 1 -116 1 -133 -1z m1332 -868 c-3 -3 -12 -4
-19 -1 -8 3 -5 6 6 6 11 1 17 -2 13 -5z m464 -25 c341 -85 641 -317 811 -629
46 -84 66 -77 -217 -76 -139 1 -255 3 -258 6 -2 3 -7 55 -10 115 -7 120 -28
201 -79 296 -69 131 -220 256 -368 304 l-45 15 45 -6 c25 -3 79 -14 121 -25z
m-521 10 c-14 -6 -41 -18 -59 -26 -164 -70 -322 -264 -355 -434 -3 -19 -8 -45
-11 -59 -3 -14 -6 -296 -6 -627 -1 -332 -4 -603 -9 -603 -16 0 -62 52 -78 87
-14 34 -16 110 -17 740 -1 386 1 707 4 711 11 17 125 85 206 123 89 42 260 94
315 97 33 1 34 1 10 -9z m102 -457 l-3 -259 -161 1 -160 0 6 96 c9 155 41 229
139 324 47 46 134 96 167 96 13 0 15 -34 12 -258z m294 232 c30 -14 80 -51
111 -81 90 -89 130 -200 128 -353 l-1 -55 -157 -1 c-86 -1 -158 2 -158 5 -1 3
-2 120 -3 259 -1 202 2 252 12 252 7 0 38 -12 68 -26z m-1150 -591 c-3 -7 -14
-13 -24 -13 -26 0 -69 -44 -75 -77 -11 -56 31 -121 78 -123 15 -1 12 -4 -12
-15 -17 -7 -39 -24 -47 -38 -34 -51 -15 -136 34 -152 25 -8 26 -22 1 -30 -27
-8 -53 -52 -54 -91 -1 -43 30 -86 71 -99 l32 -9 0 -81 c0 -141 37 -242 118
-324 44 -44 125 -91 183 -106 21 -5 27 -15 37 -65 28 -134 132 -287 255 -374
62 -43 181 -96 217 -96 10 0 21 -4 24 -9 9 -14 -184 25 -281 58 -216 72 -394
191 -558 372 -71 79 -113 142 -176 262 -151 293 -179 647 -77 965 46 147 135
311 230 425 l23 29 3 -198 c1 -109 0 -204 -2 -211z m852 -220 l-3 -107 -135 1
c-74 1 -145 2 -157 2 -20 1 -21 5 -22 106 l-1 105 160 0 161 0 -3 -107z m538
2 l-1 -105 -25 -1 c-36 -1 -251 -1 -276 0 -19 1 -20 6 -18 104 1 56 2 103 3
105 1 1 72 2 159 2 l158 0 0 -105z m823 53 c6 -29 12 -77 14 -107 l2 -54 -313
-1 -312 -1 -1 43 c-1 54 -1 138 0 157 1 13 41 15 300 15 l300 0 10 -52z
m-1361 -482 l3 -106 -159 0 -160 0 -1 104 -2 105 33 3 c18 2 89 2 158 2 l125
-1 3 -107z m518 105 c19 -1 20 -7 20 -100 -1 -55 -4 -102 -7 -106 -11 -10
-302 -6 -309 4 -4 8 -5 146 -1 196 1 8 152 11 297 6z m859 -51 c-10 -84 -11
-93 -19 -127 -5 -21 -14 -33 -24 -33 -118 -2 -577 2 -580 5 -8 8 -1 199 7 205
5 3 147 5 316 5 l307 0 -7 -55z m-1375 -633 l0 -258 -22 7 c-52 16 -116 55
-164 101 -79 76 -121 168 -130 291 -10 126 -20 118 161 118 l155 0 0 -259z
m534 173 c-3 -143 -43 -240 -135 -329 -46 -44 -164 -109 -176 -97 -7 7 -12
454 -5 491 3 20 10 21 160 20 l157 0 -1 -85z m722 60 c-19 -44 -78 -144 -113
-190 -41 -54 -179 -196 -248 -255 -127 -109 -344 -210 -520 -245 -33 -6 -77
-15 -97 -20 -21 -4 -36 -4 -33 0 3 5 20 11 38 15 81 17 203 89 278 165 134
136 186 277 189 505 l0 51 259 0 258 -1 -11 -25z"/>
</g>
</svg>
